<?xml version="1.0" encoding="UTF-8"?>
<svg id="_圖層_1" data-name="圖層_1" xmlns="http://www.w3.org/2000/svg" version="1.1" xmlns:xlink="http://www.w3.org/1999/xlink" viewBox="0 0 218.75 50">
  <!-- Generator: Adobe Illustrator 29.8.4, SVG Export Plug-In . SVG Version: 2.1.1 Build 6)  -->
  <defs>
    <style>
      .st0 {
        fill: url(#_未命名漸層_3);
      }

      .st1 {
        fill: #cd163f;
      }
    </style>
    <linearGradient id="_未命名漸層_3" data-name="未命名漸層 3" x1="22.26" y1="56.07" x2="45.19" y2="95.79" gradientTransform="translate(0 96.11) scale(1 -1)" gradientUnits="userSpaceOnUse">
      <stop offset=".28" stop-color="#cd163f"/>
      <stop offset=".9" stop-color="#f58025"/>
    </linearGradient>
  </defs>
  <path class="st1" d="M116.11,27.52c-4.25,0-6.78,2.23-6.78,5.97s2.54,5.94,6.78,5.94,6.81-2.22,6.81-5.94-2.55-5.97-6.81-5.97h0ZM116.11,36.12c-1.25,0-2.09-1.07-2.09-2.67s.84-2.68,2.09-2.68,2.09,1.06,2.09,2.68-.8,2.67-2.09,2.67h0ZM169.69,37.5c0,.91.73,1.65,1.63,1.65h3.18v-11.35h-4.81v9.69h0ZM169.69,24.09h4.81v2.35h-4.81v-2.35ZM183.2,27.52c-4.25,0-6.78,2.23-6.78,5.97s2.54,5.94,6.78,5.94,6.81-2.22,6.81-5.94-2.55-5.97-6.81-5.97h0ZM183.2,36.12c-1.25,0-2.09-1.07-2.09-2.67s.84-2.68,2.09-2.68,2.09,1.06,2.09,2.68c.01,1.65-.8,2.67-2.09,2.67h0ZM93.26,9.51c-4.25,0-6.78,2.23-6.78,5.97s2.54,5.94,6.78,5.94,6.81-2.22,6.81-5.94-2.54-5.97-6.81-5.97h0ZM93.26,18.13c-1.25,0-2.09-1.07-2.09-2.67s.84-2.68,2.09-2.68,2.09,1.06,2.09,2.68c.01,1.65-.8,2.67-2.09,2.67ZM160.46,18.25c-.52.01-2.67.12-4.56.12s-2.63-.2-3.02-1.45h7.7c.2,0,.36-.16.36-.36v-.88c0-3.9-2.07-6.1-6.04-6.15-4.43-.05-6.5,2.27-6.5,5.78,0,3.85,2.03,6.15,6.87,6.15,3.46,0,5.03-1.41,5.34-3.03,0-.07-.07-.16-.13-.16h0ZM154.92,12.15c1.28,0,1.85,1.05,1.85,2.35h-3.94c0-1.31.44-2.35,2.09-2.35h0ZM167.39,6.08h-3.14c-.91,0-1.63.74-1.63,1.65v13.41h4.76V6.08h0ZM106.89,21.33c1.87.18,3.98-.21,4.79-.38.2-.04.33-.21.33-.42v-2.76s-.88.1-2.98.1c-1.81,0-2.94-.94-2.94-2.45s1.06-2.46,2.76-2.46c1.98,0,3.14.24,3.14.24v-2.8c0-.2-.13-.38-.33-.42-.8-.18-2.88-.58-4.52-.47-3.53.21-5.72,2.27-5.72,5.93s2.07,5.58,5.47,5.89h0ZM154.3,27.77v1.47c-.69-1.05-1.73-1.74-3.3-1.74-3.59,0-5.63,2.23-5.63,5.94v.04c0,3.72,2.03,5.94,5.63,5.94,1.58,0,2.61-.69,3.3-1.74v.25c0,.67.54,1.22,1.2,1.22h3.33v-11.39h-4.53,0ZM152.2,36.12c-1.25,0-2.09-1.07-2.09-2.67s.84-2.67,2.09-2.67,2.09,1.02,2.09,2.67c.01,1.65-.8,2.67-2.09,2.67ZM143.25,9.8l-1.34,7.42-1.5-7.42h-5.41l-1.5,7.42-1.34-7.42h-4.51l-4.7-.03c-.71,0-1.39.43-1.76,1.11l-2.67,3.88V6.04h-2.91c-.91,0-1.63.74-1.63,1.65v13.41h4.54v-5.65l3.11,4.53c.38.69,1.06,1.11,1.76,1.11l4.71.03-4.6-6.06,4.14-5.27,2.71,11.33h5.07c.56,0,1.04-.4,1.14-.98l.97-6.73h.38l.97,6.73c.1.56.58.98,1.14.98h5.07l2.71-11.35h-4.54s.01,0,.01,0ZM94.4,32.72c0,1.94-.62,2.94-1.85,2.94-.76,0-1.54-.25-1.54-2.13v-5.71h-4.54v6.48c0,3.27,1.63,5.05,4.59,5.05,1.49,0,2.76-.53,3.7-1.5v.09c0,.67.54,1.22,1.2,1.22h2.99v-11.33h-4.54v4.9h0ZM139.67,27.54c-1.58,0-2.94.67-3.89,1.92-.78-1.23-2.07-1.92-3.72-1.92-1.38,0-2.61.53-3.53,1.49v-1.22h-4.14v11.35h4.5v-5.47c0-1.47.66-2.41,1.7-2.41.74,0,1.41.25,1.41,2.06v5.82h4.52v-5.47c0-1.49.64-2.41,1.67-2.41.74,0,1.41.25,1.41,2.06v5.82h4.5v-6.59c0-3.24-1.58-5.03-4.43-5.03h-.01ZM199.36,27.52c-1.49,0-2.76.53-3.7,1.51v-1.22h-4.19v11.35h4.54v-5.47c0-1.5.73-2.48,1.85-2.48.76,0,1.54.25,1.54,2.13v5.82h4.52v-6.59c0-3.27-1.62-5.05-4.56-5.05h0ZM165.29,24.09h-4.54v13.41c0,.91.73,1.65,1.63,1.65h2.91v-8.01h2.74v-3.34h-2.74v-3.72h0ZM174.44,6.08h-3.14c-.91,0-1.63.74-1.63,1.65v13.41h4.76V6.08h0ZM75.57,24.09c-.49,0-.93.29-1.1.75l-5.72,14.32h4.75l1.06-2.85h5.47l.58,1.65h0c.32.71,1.02,1.19,1.78,1.19h3.72l-6.02-15.07h-4.53s.01,0,.01,0ZM75.77,32.95l1.56-4.25,1.5,4.25h-3.07ZM105.8,24.09h-4.82v13.41c0,.91.73,1.65,1.63,1.65h3.19v-8.01h2.74v-3.34h-2.74v-3.72h0ZM84.28,15.35c-.49-.62-1.14-1.07-2.12-1.25v-.04c2.11-.25,3.36-1.69,3.36-4,0-2.9-2.07-4.03-5.43-4.03h-8.14v15.1h4.81v-5.49h1.32c.66,0,1.33.11,1.52.78l1.36,3.94c.08.44.45.76.88.76h4.45l-1.67-5.04c-.05-.27-.18-.52-.34-.74h0ZM78.74,12.49h-1.89v-3.2h1.98c.98,0,1.92.2,1.92,1.56-.01,1.51-.99,1.65-2,1.65h0Z"/>
  <path class="st0" d="M27.26,13.53L44.74.58c.25-.19.12-.58-.19-.58h-14.34c-1.65,0-3.25.66-4.42,1.83l-9.13,9.12c-1.17,1.18-1.83,2.76-1.83,4.43v12.9c0,1.67.66,3.25,1.83,4.43l9.12,9.12c1.18,1.17,2.78,1.83,4.43,1.83h12.4c.34,0,.45-.47.13-.62l-24.65-11.62c-1.02-.49-1.69-1.52-1.69-2.65v-6.19c0-.65.31-1.26.83-1.65l3.55-2.63v-4.79h6.46s0,.01,0,.01Z"/>
  <path class="st1" d="M44.25,18.52l-1.69,4.59h3.3l-1.61-4.59ZM30.06,18.7c0-1.47-1-1.67-2.06-1.67h-2.13v3.46h2.05c1.08-.01,2.14-.16,2.14-1.78h0Z"/>
  <path class="st1" d="M56.91,11.2l-8.49-8.49c-.47-.47-1.22-.54-1.78-.16l-16.34,11c3.1.2,4.97,1.45,4.97,4.31,0,2.49-1.34,4.05-3.63,4.32v.04c1.06.2,1.76.69,2.28,1.34.19.23.31.51.38.78l1.29,3.92,5.56-13.92c.2-.49.67-.8,1.19-.8h4.88l6.5,16.25h-4.01c-.82,0-1.58-.52-1.92-1.29h0l-.63-1.78h-5.9l-1.15,3.07h-8.81c-.47,0-.87-.34-.95-.83l-1.47-4.25c-.2-.73-.93-.85-1.65-.85h-1.42v5.92h-5.01v-9.86l-3,2.02c-.27.19-.43.49-.43.83v6.28c0,.4.24.78.6.93l28.28,11.84c.53.23,1.14.11,1.54-.29l9.11-9.08c1.02-1.02,1.6-2.4,1.6-3.85v-13.58c0-1.45-.58-2.83-1.6-3.83h0Z"/>
</svg>