<?xml version="1.0" encoding="UTF-8"?>
<svg id="_圖層_1" data-name="圖層_1" xmlns="http://www.w3.org/2000/svg" version="1.1" viewBox="0 0 218.75 50">
  <!-- Generator: Adobe Illustrator 29.8.4, SVG Export Plug-In . SVG Version: 2.1.1 Build 6)  -->
  <defs>
    <style>
      .st0 {
        fill: #ffcd30;
      }

      .st1 {
        fill: #242b2e;
      }
    </style>
  </defs>
  <g id="Layer_1-2">
    <g>
      <rect class="st0" x="150.7" y="36.47" width="31.22" height="10.28"/>
      <g>
        <path class="st1" d="M144.72,38.85l-2.04.56c-.23-.88-.91-1.32-1.81-1.32s-1.52.46-1.52,1.05.67,1.06,2.33,1.5c1.94.49,3.18,1.35,3.17,3.24,0,2.11-1.63,3.11-3.77,3.11s-3.77-.9-4.26-2.89l2.07-.6c.31,1.03,1.03,1.63,2.19,1.63s1.58-.41,1.58-1.13-.57-1.21-2.12-1.58c-1.89-.46-3.36-1.17-3.36-3.11s1.5-3.06,3.71-3.06c1.89,0,3.42,1.01,3.82,2.63h0Z"/>
        <path class="st1" d="M111.31,45.11c1.98,0,3.2-1.55,3.2-3.51s-1.24-3.51-3.2-3.51-3.2,1.55-3.2,3.51,1.21,3.51,3.2,3.51ZM116.72,41.6c0,2.86-1.96,5.38-5.41,5.38s-5.41-2.52-5.41-5.38,1.96-5.38,5.41-5.38,5.41,2.52,5.41,5.38Z"/>
        <path class="st1" d="M100.19,36.47v10.28h-2.19v-10.28h2.19Z"/>
        <path class="st1" d="M61.11,36.47v8.41h4.64v1.87h-6.85v-10.28h2.2Z"/>
        <path class="st1" d="M47.79,45.11c1.98,0,3.2-1.55,3.2-3.51s-1.24-3.51-3.2-3.51-3.2,1.55-3.2,3.51,1.21,3.51,3.2,3.51ZM53.22,41.6c0,2.86-1.96,5.38-5.41,5.38s-5.41-2.52-5.41-5.38,1.96-5.38,5.41-5.38,5.41,2.52,5.41,5.38Z"/>
        <path class="st1" d="M36.78,38.85l-2.04.56c-.23-.88-.91-1.32-1.81-1.32s-1.52.46-1.52,1.05.67,1.06,2.33,1.5c1.94.49,3.18,1.35,3.17,3.24-.01,2.11-1.63,3.11-3.77,3.11s-3.77-.9-4.26-2.89l2.07-.6c.31,1.03,1.03,1.63,2.19,1.63s1.58-.41,1.58-1.13-.57-1.21-2.12-1.58c-1.89-.46-3.36-1.17-3.36-3.11s1.5-3.06,3.71-3.06c1.89,0,3.43,1.01,3.82,2.63h0Z"/>
        <path class="st1" d="M74.75,46.99c-3.07,0-4.27-1.85-4.27-4.51v-6.01h2.2v6.01c0,1.52.6,2.63,2.07,2.63s1.94-1.09,1.94-2.63v-6.01h2.2v6.01c0,2.55-1.1,4.51-4.14,4.51h-.01Z"/>
        <path class="st1" d="M84.17,36.47h8.07v1.87h-2.94v8.41h-2.22v-8.41h-2.91v-1.87h0Z"/>
        <path class="st1" d="M125.27,36.47l2.71,5.29,1.08,2.32c-.05-.85-.05-1.81-.05-2.89v-4.71h2.14v10.28h-2.94l-2.37-4.53c-.59-1.32-1.19-2.39-1.45-3.03.02.84.02,2.13.02,3.16v4.4h-2.14v-10.28h3Z"/>
        <path class="st1" d="M120.61,7.96l-3.37,3.06c-1.65-2.2-3.96-3.75-7.19-3.75-4.86,0-7.92,3.75-7.92,8.61s2.65,8.61,7.78,8.61,6.09-1.86,6.75-5.62h-7.51v-3.79h12.12v13.08h-3.96v-4.27c-1.17,2.96-4.47,4.79-8.2,4.79-7.99,0-11.81-6.09-11.81-12.81s4.99-12.88,12.7-12.88c4.86-.01,8.37,1.88,10.61,4.95h0Z"/>
        <path class="st1" d="M161.05,3.52h6.47l7.17,13.33c1.06,2.14,2,4,2.65,5.3-.07-1.96-.11-4.09-.11-6.47V3.52h4.72v24.65h-6.41l-6.5-11.87c-1.31-2.83-2.61-5.13-3.3-6.65.07,1.93.07,4.72.07,7.02v11.5h-4.75V3.52h0Z"/>
        <polygon class="st1" points="150.62 3.52 150.62 28.17 155.48 28.17 155.48 3.52 150.62 3.52 150.62 3.52"/>
        <path class="st1" d="M135.26,28.76c-7.19,0-9.95-4.38-9.95-10.54V3.52h4.82v14.7c0,3.66,1.58,6.37,5.24,6.37s4.92-2.72,4.92-6.37V3.52h4.88v14.7c0,5.96-2.81,10.54-9.91,10.54h0Z"/>
        <path class="st1" d="M72.66,3.52h6.47l7.17,13.33c1.1,2.14,2,4,2.65,5.3-.07-1.96-.11-4.09-.11-6.47V3.52h4.72v24.65h-6.37l-6.54-11.87c-1.31-2.83-2.61-5.13-3.31-6.65.07,1.93.07,4.72.07,7.02v11.5h-4.75V3.52h.01,0Z"/>
        <polygon class="st1" points="67.97 3.52 67.97 7.61 56.54 7.61 56.54 13.73 67.24 13.73 67.24 17.73 56.54 17.73 56.54 24.07 68.07 24.07 68.07 28.16 51.69 28.16 51.69 3.52 67.97 3.52 67.97 3.52"/>
        <path class="st1" d="M39.07,3.52h-9.89v24.65h4.86v-8.9h4.95c5.44,0,9.23-3.68,9.23-8.05s-3.23-7.71-9.15-7.71h0ZM38.63,15.3h-4.61v-7.78h4.69c2.76,0,4.72,1.13,4.72,3.79s-2.03,4-4.79,4h0Z"/>
        <g>
          <path class="st1" d="M189.58,4.59c-.2-.34-.47-.6-.82-.8s-.71-.29-1.11-.29-.77.1-1.12.29c-.34.19-.62.46-.82.8-.21.34-.3.71-.3,1.12s.1.8.3,1.13.47.61.82.8.71.29,1.12.29.77-.1,1.11-.29.61-.46.82-.8.3-.72.3-1.13-.1-.78-.3-1.12h0ZM189.15,6.63c-.16.27-.36.49-.63.64s-.56.23-.87.23-.61-.08-.88-.23-.48-.37-.63-.64c-.16-.27-.23-.58-.23-.92s.08-.63.23-.91c.16-.27.36-.49.63-.64.27-.16.56-.23.88-.23s.6.08.87.23c.27.16.47.37.63.64.16.27.23.57.23.9s-.08.64-.23.92h0Z"/>
          <path class="st1" d="M188.49,6.54c-.03-.06-.05-.12-.07-.19l-.04-.12c-.02-.06-.04-.12-.06-.18s-.05-.1-.09-.14-.08-.06-.14-.09c.11-.03.21-.1.28-.19s.12-.23.12-.38c0-.12-.03-.23-.1-.32-.06-.09-.16-.16-.27-.21s-.26-.08-.42-.08h-.82v2.08h.49v-.74h.21c.1,0,.17.03.22.08s.09.12.12.21l.03.12c.03.08.05.16.08.21s.05.1.08.12h.48v-.02c-.03-.05-.06-.11-.08-.17h-.01ZM187.93,5.52c-.06.05-.14.08-.25.08h-.31v-.54h.31c.1,0,.19.02.25.06s.1.1.1.19-.03.16-.1.21Z"/>
        </g>
      </g>
    </g>
  </g>
</svg>