<?xml version="1.0" encoding="UTF-8"?>
<svg id="_圖層_1" data-name="圖層_1" xmlns="http://www.w3.org/2000/svg" version="1.1" viewBox="0 0 218.75 50">
  <!-- Generator: Adobe Illustrator 29.8.4, SVG Export Plug-In . SVG Version: 2.1.1 Build 6)  -->
  <defs>
    <style>
      .st0 {
        fill: #fff;
      }

      .st1 {
        fill: #004079;
      }
    </style>
  </defs>
  <rect class="st1" x="22.59" y="2.24" width="138.3" height="28.15"/>
  <path class="st1" d="M75.68,39.01v-.06.06ZM71.3,45.51l.03-.08.08-.23h.04c.34,0,.58-.07.72-.19.14-.11.29-.39.41-.83l1.3-4.43c.07-.25.11-.43.11-.56,0-.12-.03-.19-.11-.25-.07-.05-.27-.1-.6-.12h-.08l.02-.08.07-.23h5.6l-.47,1.84h-.29v-.05c-.01-.34-.07-.56-.15-.69-.14-.21-.32-.36-.54-.45-.22-.1-.6-.14-1.12-.14h-.6l-.73,2.55h.15c.61,0,1.06-.08,1.32-.23.27-.15.5-.43.69-.84v-.03h.32l-.8,2.8h-.29v-.07c.04-.18.05-.32.05-.43,0-.18-.05-.31-.15-.42s-.23-.19-.4-.23c-.1-.03-.34-.05-.7-.05h-.35l-.64,2.26c-.05.2-.09.35-.08.43,0,.05.02.1.08.14.09.05.29.1.58.1.57,0,1.1-.12,1.61-.36.51-.25.95-.6,1.4-1.12h.29l-.76,2.01h-6.01,0Z"/>
  <path class="st1" d="M81.58,45.39c-.13-.12-.2-.27-.2-.45,0-.15.04-.37.12-.65l.63-2.17c.04-.14.06-.24.06-.29,0-.02,0-.03-.03-.05s-.04-.03-.06-.03c-.1,0-.25.08-.43.25-.46.44-.91,1.1-1.34,1.96l-.43,1.55h-1.42l.97-3.33c.09-.32.13-.54.13-.67,0-.05-.01-.08-.03-.11-.01-.03-.05-.05-.1-.07-.05-.02-.16-.03-.32-.03h-.08l.02-.08.1-.23,1.72-.29h.31v.05-.05h.08l-.54,1.88c.32-.47.56-.8.74-.99.31-.34.58-.58.81-.7.23-.12.45-.19.66-.19.19,0,.36.08.49.21.14.14.21.33.21.55,0,.2-.04.43-.12.71l-.64,2.16c-.05.19-.08.31-.08.35,0,.02,0,.03.02.05.02.02.03.02.03.02.01,0,.04,0,.07-.03.11-.1.23-.23.35-.4.03-.05.08-.12.14-.21l.03-.04.05.03.24.15-.03.05c-.5.84-1.04,1.28-1.62,1.28-.22,0-.4-.05-.54-.18"/>
  <path class="st1" d="M86.68,41.27c-.21.19-.46.62-.72,1.26s-.38,1.18-.38,1.63c0,.17.03.29.08.35.05.07.1.1.14.1.13,0,.27-.08.42-.25.22-.25.42-.55.6-.91.32-.63.47-1.19.47-1.67,0-.27-.04-.45-.11-.56-.05-.07-.11-.1-.2-.1s-.18.04-.28.14M84.36,45.24c-.14-.27-.22-.56-.22-.89,0-.49.15-1.04.45-1.67s.68-1.13,1.16-1.51c.4-.32.78-.48,1.13-.48.2,0,.37.06.5.19.1.09.16.23.22.41l.13-.45,1.24-.08h.08l-1,3.44-.1.4s-.01.08-.01.1c0,.03,0,.04.03.07.02.02.03.02.05.03.04,0,.13-.04.25-.15.03-.03.16-.19.36-.45l.03-.05.04.02.23.12-.03.05c-.24.45-.51.78-.78.98-.28.21-.59.32-.92.32-.2,0-.36-.05-.48-.16-.12-.11-.17-.25-.17-.42,0-.14.05-.38.16-.73-.31.47-.61.83-.91,1.06-.22.17-.46.26-.71.25h-.01c-.32,0-.57-.14-.71-.41"/>
  <path class="st1" d="M90.72,45.25c.17,0,.31-.03.42-.1.19-.11.38-.31.59-.6.21-.29.38-.65.52-1.08.14-.42.21-.84.21-1.25,0-.23-.05-.4-.14-.51-.1-.12-.21-.16-.33-.16-.22,0-.4.1-.58.32-.11.13-.24.45-.37.93l-.68,2.34c.14.08.26.12.36.12M90.82,45.65c-.57,0-1.17-.16-1.8-.5l-.04-.02,1.56-5.43c.08-.25.11-.43.11-.51,0-.06-.02-.1-.08-.14-.07-.05-.17-.08-.32-.08h-.16s.03-.08.03-.08l.1-.25,1.7-.3h.3v.06-.06h.08l-.83,2.9c.2-.2.37-.34.51-.42.19-.1.39-.15.61-.15.42,0,.75.16.96.47.21.3.32.65.31,1.05,0,.93-.34,1.76-1.01,2.48-.6.64-1.28.97-2.04.97h0Z"/>
  <path class="st1" d="M94.22,45.46c-.14-.13-.22-.29-.22-.47,0-.14.04-.34.12-.62l1.37-4.67c.08-.25.11-.43.11-.49,0-.06-.02-.1-.08-.14-.07-.05-.17-.08-.32-.08h-.16l.03-.08.1-.23,1.72-.3h.31v.06-.06h.08l-1.7,5.78c-.1.34-.14.55-.14.62,0,.03,0,.05.03.07s.03.03.05.03c.04,0,.09-.02.13-.06.16-.12.34-.34.53-.65l.03-.04.05.02.26.12-.03.05c-.32.51-.64.89-.97,1.12-.22.15-.46.23-.71.23h0c-.23,0-.42-.06-.56-.19"/>
  <path class="st1" d="M98.9,38.37c.22,0,.42.08.57.23.15.16.23.35.23.57s-.08.41-.24.57c-.15.15-.34.23-.56.23h0c-.22,0-.41-.08-.56-.23-.16-.16-.23-.35-.23-.57s.08-.41.23-.57c.15-.16.35-.23.57-.23M96.93,45.45c-.14-.14-.21-.31-.21-.51,0-.14.03-.29.09-.49l.71-2.42c.07-.23.1-.4.1-.51,0-.05-.02-.1-.08-.15-.05-.04-.12-.07-.23-.07-.05,0-.11,0-.18,0h-.09l.03-.08.12-.24,1.73-.28h.3v.06-.06h.08l-1.06,3.68c-.05.21-.08.34-.08.39,0,.02,0,.03.03.06.02.02.04.03.05.03.04,0,.08-.01.14-.06.14-.12.32-.34.54-.67l.03-.05.05.03.22.13-.03.05c-.51.9-1.07,1.36-1.67,1.37h0c-.23,0-.42-.07-.56-.2"/>
  <path class="st1" d="M102.35,45.39c-.13-.12-.2-.27-.2-.45,0-.15.04-.37.12-.65l.64-2.17c.04-.14.06-.24.06-.29,0-.02,0-.03-.03-.05s-.04-.03-.07-.03c-.1,0-.25.08-.43.25-.46.44-.91,1.1-1.34,1.96l-.43,1.55h-1.41l.97-3.33c.09-.32.14-.54.14-.67,0-.05-.01-.08-.03-.11s-.05-.05-.1-.07c-.04-.02-.16-.03-.32-.03h-.08l.02-.08.1-.23,1.72-.29h.31v.05-.05h.08l-.55,1.89c.32-.47.56-.8.74-.99.31-.34.58-.58.81-.7.23-.12.45-.19.66-.19.19,0,.36.08.49.21.14.14.21.33.21.55,0,.2-.04.43-.12.71l-.65,2.16c-.05.19-.08.31-.08.35,0,.02,0,.03.02.05.02.02.03.02.03.02.02,0,.04,0,.07-.03.11-.1.23-.23.35-.4.03-.05.08-.12.15-.21l.03-.04.05.03.25.14-.03.05c-.5.84-1.04,1.28-1.62,1.28-.22,0-.4-.05-.54-.18"/>
  <path class="st1" d="M107.72,41.06c-.15,0-.27.05-.38.14-.17.16-.33.43-.47.81s-.2.74-.2,1.08c0,.15.04.26.12.35.09.08.19.12.32.12s.23-.04.32-.12c.19-.18.35-.47.49-.86.14-.4.21-.76.21-1.08,0-.14-.04-.23-.12-.32s-.17-.12-.29-.12M106.6,47.34c.42,0,.71-.08.88-.21.18-.15.26-.31.26-.49,0-.16-.08-.29-.23-.4s-.49-.23-.98-.35c-.22-.05-.4-.11-.55-.16-.3.12-.51.25-.61.38-.11.14-.16.28-.16.43,0,.2.1.38.32.55.21.16.58.25,1.07.25M104.61,47.33c-.29-.2-.45-.45-.45-.75,0-.23.1-.43.29-.62.19-.18.54-.32,1.06-.45-.14-.09-.24-.17-.3-.25-.1-.14-.16-.28-.16-.44,0-.25.1-.46.29-.64.17-.16.43-.32.8-.47-.27-.13-.48-.28-.61-.47-.16-.22-.23-.47-.23-.76,0-.31.1-.6.27-.87.19-.27.46-.5.81-.67.36-.17.76-.25,1.22-.25.29,0,.55.03.78.1.12.03.25.1.4.21h1.41l-.02.08-.17.6h-.64c.08.17.12.34.12.51,0,.32-.09.62-.26.88s-.43.49-.76.64c-.34.16-.71.24-1.11.24-.11,0-.23,0-.36-.02s-.27-.04-.38-.07c-.22.11-.36.21-.4.26-.03.04-.05.08-.05.11,0,.04.01.08.05.11.08.07.2.12.36.16.69.14,1.15.27,1.37.36.31.13.54.29.71.5s.25.46.25.75c0,.44-.21.83-.6,1.15-.4.33-1.02.49-1.84.49s-1.44-.13-1.85-.42"/>
  <path class="st1" d="M114.78,41.27c-.21.19-.46.62-.72,1.26s-.38,1.18-.38,1.63c0,.17.03.29.08.35.05.07.1.1.14.1.13,0,.27-.08.42-.25.22-.25.42-.55.59-.91.32-.63.47-1.19.47-1.67,0-.27-.04-.45-.12-.56-.05-.07-.11-.1-.2-.1-.08,0-.18.04-.28.14M112.45,45.24c-.14-.27-.21-.56-.21-.89,0-.49.15-1.04.45-1.67s.68-1.13,1.16-1.51c.39-.32.78-.48,1.13-.48.2,0,.37.06.5.19.1.09.16.23.22.41l.13-.45,1.24-.08h.08l-1.01,3.44-.1.4s-.01.08-.01.1c0,.03,0,.04.03.07.02.02.03.02.05.03.04,0,.14-.04.25-.15.04-.03.16-.19.36-.45l.03-.04.04.02.23.12-.03.05c-.24.45-.5.78-.78.98s-.59.32-.91.32c-.2,0-.36-.05-.49-.16-.11-.11-.17-.25-.17-.42,0-.14.05-.38.16-.73-.31.47-.61.83-.91,1.06-.22.17-.45.26-.71.25h0c-.32,0-.58-.14-.72-.41"/>
  <path class="st1" d="M119.91,40.7l-.54,1.88c.32-.47.56-.8.74-.99.31-.34.58-.58.81-.7.23-.12.45-.19.66-.19.19,0,.36.08.49.21.14.14.21.33.21.55,0,.2-.04.43-.12.71l-.65,2.17c-.05.19-.08.31-.08.35,0,.02,0,.03.02.05.02.02.03.02.03.02.02,0,.04,0,.07-.03.11-.1.23-.23.35-.4.03-.05.08-.12.14-.21l.03-.04.05.03.24.15-.03.05c-.5.84-1.04,1.28-1.61,1.28-.22,0-.4-.05-.54-.18-.13-.12-.2-.27-.2-.45,0-.15.04-.37.12-.65l.63-2.17c.04-.14.06-.24.06-.29,0-.02,0-.03-.03-.05-.02-.02-.03-.03-.06-.03-.1,0-.25.08-.43.25-.46.44-.91,1.1-1.34,1.96l-.43,1.55h-1.42l.97-3.33c.09-.32.14-.54.14-.67,0-.05,0-.08-.03-.11s-.05-.05-.1-.07c-.05-.02-.16-.03-.32-.03h-.08l.02-.08.1-.23,1.72-.29h.4Z"/>
  <path class="st1" d="M124.52,45.51l.02-.08.07-.23h.04c.34,0,.57-.07.71-.19.14-.11.29-.39.41-.82l1.27-4.4c.08-.27.12-.47.12-.6,0-.11-.04-.19-.12-.25-.07-.05-.29-.1-.64-.13v-.05h.06s-.05,0-.05,0v.05h-.08l.02-.07.07-.23h3.48l-.03.08-.08.23h-.04c-.29,0-.51.07-.66.19-.14.12-.29.39-.4.82l-1.26,4.4c-.09.31-.13.51-.13.61,0,.11.03.18.12.23.1.08.32.12.65.13h.08l-.02.08-.06.23h-3.54Z"/>
  <path class="st1" d="M131.9,45.39c-.13-.12-.2-.27-.2-.45,0-.15.04-.37.12-.65l.64-2.17c.04-.14.06-.24.06-.29,0-.02,0-.03-.03-.05s-.04-.03-.07-.03c-.1,0-.25.08-.43.25-.46.44-.91,1.1-1.34,1.96l-.43,1.55h-1.42l.97-3.33c.09-.32.14-.54.14-.67,0-.05-.01-.08-.03-.11-.02-.03-.05-.05-.1-.07-.05-.02-.16-.03-.32-.03h-.08l.02-.08.1-.23,1.71-.29h.31v.05-.05h.08l-.55,1.88c.32-.47.56-.8.74-.99.31-.34.58-.58.81-.7s.45-.19.66-.19c.19,0,.36.08.49.21.14.14.21.33.21.55,0,.2-.04.43-.12.71l-.64,2.16c-.05.19-.08.31-.08.35,0,.02,0,.03.02.05.02.02.03.02.03.02.01,0,.04,0,.07-.03.11-.1.23-.23.35-.4.03-.05.08-.12.14-.21l.03-.04.05.03.25.15-.03.05c-.5.84-1.04,1.28-1.62,1.28-.22,0-.4-.05-.54-.18"/>
  <path class="st1" d="M137.29,39.46h.08l-.4,1.38h.67l-.02.08-.19.62h-.65l-.84,2.89c-.05.18-.08.31-.08.4,0,.03,0,.05.03.07.03.03.04.03.06.03.04,0,.09-.01.14-.06.14-.11.32-.31.53-.6l.03-.05.05.03.23.14-.03.05c-.23.41-.5.72-.79.91s-.58.29-.86.29h0c-.23,0-.43-.06-.57-.19-.14-.12-.21-.29-.21-.49,0-.21.05-.46.13-.78l.78-2.66h-.69l.02-.08.14-.42c.43-.16.79-.34,1.08-.55.29-.21.64-.55,1.1-1.04h.27v.02Z"/>
  <path class="st1" d="M139.61,41.47c-.35.39-.65.97-.89,1.74.25-.04.45-.1.58-.16.16-.08.31-.19.46-.35.15-.16.28-.37.4-.62.11-.25.17-.48.17-.69,0-.08-.02-.14-.06-.19-.04-.04-.09-.06-.16-.06h0c-.13,0-.3.1-.5.32M137.47,45.23c-.23-.28-.34-.61-.34-.97,0-.57.16-1.13.49-1.69s.78-1.02,1.34-1.35c.56-.34,1.13-.51,1.71-.51.29,0,.52.07.69.22.16.14.24.34.23.56,0,.26-.08.51-.22.75-.2.32-.45.59-.75.78-.3.2-.64.35-1.02.45-.24.07-.56.12-.95.14-.03.2-.03.36-.03.49,0,.24.07.43.21.56s.31.21.55.21.45-.05.69-.16c.23-.11.5-.31.82-.59l.04-.03.04.03.19.18-.03.04c-.39.47-.78.82-1.15,1.02-.38.21-.8.31-1.25.31-.58,0-.98-.14-1.21-.43"/>
  <path class="st1" d="M141.66,45.46c-.14-.13-.22-.29-.22-.47,0-.14.04-.34.12-.62l1.37-4.67c.07-.25.11-.43.11-.49,0-.06-.02-.1-.08-.14-.07-.05-.18-.08-.32-.08h-.16l.03-.08.1-.23,1.72-.3h.3v.06-.06h.08l-1.7,5.78c-.1.34-.14.55-.14.62,0,.03,0,.05.02.07.02.02.04.03.05.03.04,0,.08-.02.13-.06.16-.12.34-.34.53-.65l.03-.04.05.02.26.12-.03.06c-.32.51-.64.89-.97,1.12-.22.15-.46.23-.71.23-.23,0-.43-.06-.57-.2"/>
  <path class="st1" d="M144.31,45.46c-.14-.12-.22-.29-.22-.47,0-.14.04-.34.12-.62l1.37-4.67c.07-.25.11-.43.11-.49,0-.06-.02-.1-.08-.14-.07-.05-.17-.08-.32-.08h-.16l.03-.08.1-.23,1.72-.29h.3v.06-.06h.08l-1.7,5.78c-.1.34-.14.55-.14.62,0,.03,0,.05.03.07.02.03.03.03.05.03.04,0,.09-.01.14-.05.15-.12.33-.34.53-.65l.03-.04.05.02.26.12-.03.06c-.32.51-.64.89-.97,1.12-.22.15-.46.23-.71.23h0c-.23,0-.43-.07-.56-.2"/>
  <path class="st1" d="M148.98,38.37c.23,0,.42.08.58.24.15.16.23.35.23.57s-.08.41-.23.57c-.16.15-.35.23-.57.23s-.41-.08-.56-.23c-.16-.16-.23-.35-.23-.57s.08-.41.23-.57c.15-.16.35-.24.57-.24M147.02,45.45c-.14-.14-.21-.31-.21-.51,0-.14.03-.29.09-.49l.71-2.42c.07-.23.1-.4.1-.51,0-.05-.02-.1-.08-.15-.05-.05-.12-.07-.22-.07h-.27l.03-.08.12-.24,1.73-.28h.3v.06-.06h.08l-1.06,3.68c-.05.21-.08.34-.08.39,0,.02,0,.03.03.06.02.02.04.03.05.03.03,0,.08-.02.13-.06.14-.12.32-.34.54-.67l.03-.05.05.03.23.13-.03.05c-.51.89-1.07,1.36-1.68,1.36h0c-.23,0-.42-.07-.56-.2"/>
  <path class="st1" d="M152.26,41.06c-.15,0-.27.05-.38.14-.17.16-.33.43-.47.8-.14.38-.2.75-.2,1.08,0,.15.04.27.13.35.09.09.19.12.32.12s.23-.04.32-.12c.19-.17.35-.46.49-.86.14-.4.21-.76.21-1.08,0-.14-.04-.24-.12-.32-.08-.08-.17-.12-.29-.12M149.9,46.1c-.11.14-.16.28-.16.44,0,.2.1.38.32.55.21.16.57.25,1.07.25.41,0,.71-.08.88-.21.18-.15.26-.31.26-.49,0-.16-.07-.29-.23-.4-.16-.11-.49-.23-.99-.35-.22-.05-.4-.11-.54-.16-.3.12-.51.25-.61.38M149.16,47.33c-.29-.21-.45-.46-.45-.75,0-.23.1-.43.29-.62.19-.18.54-.32,1.06-.45-.14-.09-.24-.17-.3-.25-.1-.13-.16-.28-.16-.44,0-.24.1-.46.29-.64.17-.16.43-.32.8-.47-.27-.12-.47-.28-.61-.47-.16-.22-.23-.47-.23-.76,0-.31.1-.6.28-.87.18-.27.45-.5.8-.67.36-.17.76-.25,1.22-.25.29,0,.55.03.78.1.12.03.25.1.4.21h1.41l-.03.08-.17.6h-.64c.08.17.12.34.12.51,0,.32-.08.62-.26.88-.17.27-.43.49-.76.64-.34.16-.71.24-1.11.24-.11,0-.23,0-.36-.03-.13-.01-.27-.03-.38-.07-.22.11-.36.21-.4.26-.03.04-.05.08-.05.11,0,.04.01.08.05.11.08.07.2.12.36.16.69.15,1.15.27,1.37.36.31.13.54.29.71.5s.25.46.25.75c0,.44-.21.83-.6,1.15-.4.33-1.02.49-1.84.49s-1.45-.14-1.85-.42"/>
  <path class="st1" d="M156.91,41.47c-.35.39-.65.97-.89,1.74.25-.04.44-.1.58-.16.15-.07.31-.19.46-.35.15-.16.28-.36.4-.62.11-.25.16-.48.16-.69,0-.09-.02-.14-.06-.19-.04-.04-.09-.06-.16-.06h0c-.13,0-.3.1-.5.32M154.77,45.23c-.23-.28-.34-.61-.34-.97,0-.57.16-1.13.49-1.69s.78-1.02,1.34-1.35c.56-.34,1.13-.51,1.71-.51.29,0,.52.07.68.22.16.14.24.34.24.56,0,.26-.08.51-.22.75-.2.32-.45.59-.75.79s-.64.35-1.02.45c-.24.07-.56.12-.95.15-.03.2-.04.36-.04.49,0,.24.07.43.21.57.13.14.31.21.55.21.22,0,.45-.05.69-.16.23-.11.5-.31.82-.59l.04-.03.04.03.19.17-.03.04c-.39.47-.78.82-1.15,1.02-.38.21-.8.31-1.25.31-.57,0-.98-.14-1.21-.43"/>
  <path class="st1" d="M161.78,45.39c-.13-.12-.2-.27-.2-.45,0-.15.04-.37.12-.65l.63-2.16c.05-.14.06-.24.06-.29,0-.02,0-.03-.03-.05-.02-.02-.04-.03-.07-.03-.1,0-.25.08-.43.25-.46.44-.91,1.1-1.33,1.97l-.43,1.54h-1.42l.97-3.33c.09-.32.14-.54.14-.67,0-.05-.01-.08-.03-.11-.02-.03-.05-.05-.1-.07-.04-.02-.16-.03-.32-.03h-.08l.03-.08.1-.23,1.72-.29h.31v.06-.06h.08l-.55,1.89c.32-.47.56-.8.74-.99.31-.34.58-.58.81-.7.23-.12.45-.19.66-.19.19,0,.36.07.49.21.14.14.21.33.21.55,0,.2-.04.43-.12.71l-.65,2.17c-.05.19-.08.31-.08.35,0,.02,0,.03.02.05.02.02.03.02.03.02.02,0,.04,0,.07-.03.12-.1.23-.23.35-.4.03-.05.08-.12.14-.21l.03-.05.05.03.25.15-.03.05c-.5.84-1.04,1.28-1.62,1.28h0c-.22,0-.4-.06-.52-.18"/>
  <path class="st1" d="M167.17,39.46h.08l-.4,1.38h.67l-.02.08-.19.62h-.66l-.83,2.89c-.05.18-.08.31-.08.4,0,.03,0,.05.03.07.03.03.04.03.06.03.04,0,.09-.01.14-.06.14-.11.32-.31.53-.6l.03-.05.05.03.23.14-.03.05c-.23.41-.5.71-.79.91-.29.19-.58.29-.86.29h0c-.23,0-.43-.06-.56-.19-.14-.13-.21-.29-.21-.49,0-.21.04-.46.13-.78l.78-2.66h-.69l.02-.08.14-.42c.43-.16.79-.34,1.08-.55.29-.21.64-.55,1.11-1.04h.27-.02Z"/>
  <path class="st1" d="M172.81,41.89c.45,0,.79-.2,1.04-.61.26-.42.39-.85.39-1.3,0-.31-.08-.53-.24-.69-.16-.16-.38-.25-.67-.25-.05,0-.12,0-.19,0l-.8,2.81c.19.02.34.03.47.03M172.14,42.35v-.05.05ZM168.82,45.51l.02-.08.07-.23h.04c.28,0,.48-.03.58-.08s.19-.12.27-.23c.05-.06.14-.3.25-.69l1.27-4.36c.09-.29.13-.49.13-.6,0-.1-.04-.19-.14-.27-.1-.07-.28-.12-.58-.12h-.08l.03-.08.07-.23h2.76c.75,0,1.3.1,1.64.29.52.31.79.78.79,1.39s-.26,1.12-.78,1.56c-.52.45-1.21.67-2.08.67-.25,0-.55-.02-.89-.08l-.55,1.87c-.08.27-.12.46-.12.56,0,.14.05.23.13.3.08.06.3.11.65.12h.08l-.03.08-.08.23h-3.48.02Z"/>
  <path class="st1" d="M175.64,45.46c-.14-.12-.22-.29-.22-.47,0-.14.04-.34.12-.62l1.37-4.67c.08-.25.11-.43.11-.49,0-.06-.02-.1-.08-.14-.07-.05-.18-.08-.32-.08h-.16l.02-.08.1-.23,1.72-.3h.3v.06-.06h.08l-1.7,5.78c-.1.34-.14.55-.14.62,0,.03,0,.05.03.07s.04.03.05.03c.04,0,.09-.01.14-.06.15-.12.33-.34.53-.65l.03-.04.05.02.26.12-.03.06c-.32.51-.64.89-.97,1.12-.22.15-.46.23-.71.23-.23,0-.43-.06-.58-.2"/>
  <path class="st1" d="M180.67,41.26c-.21.2-.46.62-.72,1.26-.26.64-.38,1.18-.38,1.64,0,.17.03.29.08.35.05.07.1.1.14.1.13,0,.27-.08.42-.25.22-.24.42-.54.59-.91.32-.63.47-1.19.47-1.67,0-.27-.04-.45-.12-.56-.05-.07-.11-.1-.2-.1-.08,0-.18.04-.28.14M178.34,45.24c-.14-.27-.22-.56-.22-.89,0-.49.15-1.04.45-1.67s.68-1.13,1.16-1.51c.4-.32.77-.48,1.13-.48.2,0,.37.06.49.19.1.09.16.23.22.41l.13-.45,1.24-.08h.08l-1.01,3.44-.1.4s-.01.08-.01.1,0,.04.03.07c.02.02.03.03.05.03.04,0,.14-.04.25-.14.04-.03.16-.19.36-.46l.03-.04.05.03.23.12-.03.05c-.25.45-.5.78-.79.98-.28.21-.59.32-.91.32-.21,0-.37-.05-.49-.17-.11-.11-.17-.25-.17-.42,0-.14.05-.38.16-.73-.31.48-.61.83-.91,1.06-.22.17-.46.26-.71.26h0c-.32,0-.58-.14-.72-.41"/>
  <path class="st1" d="M186.06,45.39c-.13-.12-.2-.27-.19-.45,0-.15.04-.37.12-.65l.63-2.17c.04-.14.06-.24.06-.29,0-.02,0-.03-.03-.05-.02-.02-.04-.03-.07-.03-.1,0-.25.08-.43.25-.46.44-.91,1.1-1.34,1.97l-.43,1.55h-1.42l.97-3.33c.09-.32.14-.54.14-.67,0-.05-.01-.08-.03-.11s-.05-.05-.1-.07c-.04-.01-.16-.03-.32-.03h-.08l.03-.08.1-.23,1.72-.3h.31v.06-.06h.08l-.54,1.88c.32-.46.56-.79.74-.99.31-.34.58-.58.81-.7.23-.12.45-.19.66-.19.19,0,.36.08.49.21.14.14.21.33.21.55,0,.2-.04.43-.12.71l-.65,2.16c-.05.19-.08.31-.08.36,0,.01,0,.03.02.05s.03.02.03.02c.02,0,.04,0,.07-.03.12-.09.23-.23.35-.4.03-.05.08-.12.15-.21l.03-.05.05.03.25.15-.03.05c-.5.84-1.04,1.28-1.62,1.28-.22,0-.4-.05-.54-.18"/>
  <path class="st1" d="M191.12,41.47c-.35.39-.64.97-.88,1.74.25-.04.45-.1.58-.16.15-.08.31-.19.46-.35s.28-.36.4-.62c.11-.25.16-.48.16-.69,0-.08-.03-.14-.06-.19-.04-.04-.09-.06-.16-.06h0c-.13,0-.3.1-.5.32M188.99,45.23c-.23-.28-.34-.61-.34-.97,0-.56.16-1.13.49-1.69.33-.56.78-1.02,1.34-1.36.56-.34,1.13-.51,1.71-.51.29,0,.52.07.69.22.16.14.23.34.23.56,0,.26-.07.51-.22.75-.21.32-.45.59-.76.79-.3.2-.64.35-1.02.45-.25.07-.56.12-.96.14-.03.2-.03.36-.03.49,0,.24.07.43.21.56.14.14.32.21.55.21s.46-.05.69-.16c.23-.11.5-.31.82-.59l.03-.03.04.03.19.17-.03.04c-.39.47-.78.82-1.15,1.02-.38.21-.8.31-1.25.31-.57,0-.99-.14-1.21-.43"/>
  <path class="st1" d="M193.2,45.46c-.14-.13-.21-.29-.21-.49,0-.21.05-.46.13-.78l.78-2.66h-.69l.02-.08.14-.42c.43-.16.79-.34,1.08-.55.29-.21.64-.55,1.11-1.04h.26v.06-.06h.08l-.4,1.38h.67l-.02.08-.19.62h-.65l-.84,2.89c-.05.18-.08.32-.08.4,0,.03,0,.05.03.08.02.02.03.03.05.03.04,0,.08-.02.14-.06.14-.11.32-.32.53-.6l.03-.05.05.03.23.14-.03.05c-.23.41-.5.72-.79.91-.29.19-.58.29-.86.29-.24,0-.44-.06-.58-.19"/>
  <path class="st0" d="M57.1,23.23v-8.9c3.23-.17,4.69,2.11,4.69,4.71s-1.52,4.39-4.69,4.18M53.78,11.46v14.78h3.22c5.08,0,8.09-3.15,8.09-7.26s-2.77-7.52-8.73-7.52c0,0-2.58,0-2.58,0Z"/>
  <polygon class="st0" points="98.69 11.46 95.37 11.46 95.37 19.67 86.27 11.21 86.27 26.25 89.6 26.25 89.6 18.54 98.69 26.85 98.69 11.46"/>
  <polygon class="st0" points="100.11 14.34 104.18 14.34 104.18 26.25 107.75 26.25 107.75 14.34 111.76 14.34 111.76 11.46 100.11 11.46 100.11 14.34"/>
  <polygon class="st0" points="113.07 26.25 113.07 11.46 121.78 11.46 121.78 14.27 116.41 14.27 116.41 17.42 121.24 17.42 121.24 20.27 116.41 20.27 116.41 23.41 121.78 23.41 121.78 26.25 113.07 26.25"/>
  <polygon class="st0" points="144.95 11.46 144.95 17.44 139.24 17.44 139.24 11.46 135.9 11.46 135.9 26.25 139.24 26.25 139.24 20.26 144.95 20.26 144.95 26.25 148.28 26.25 148.28 11.46 144.95 11.46"/>
  <polygon class="st0" points="63.48 11.46 71.06 26.66 72.87 22.79 67.35 11.46 63.48 11.46"/>
  <polygon class="st0" points="78.55 10.95 76.72 14.79 78.28 18.74 74.83 18.74 73.66 21.18 79.23 21.18 81.33 26.25 85.2 26.25 78.55 10.95"/>
  <path class="st0" d="M122.5,18.88c0,4.85,3.66,7.54,8.16,7.54,1.78,0,2.76-.51,3.5-.89v-3.51c-.69.91-2.05,1.51-3.44,1.51-2.7,0-4.84-1.82-4.84-4.75s2.37-4.64,4.84-4.64c1.39,0,2.75.6,3.44,1.51v-3.25c-.63-.56-1.76-1.03-3.54-1.03-4.5,0-8.12,3.19-8.12,7.5"/>
  <path class="st0" d="M52.97,26.25l-8.47-18.47-8.55,18.47h4.18l1.21-3.09h6.06l1.21,3.09s4.35,0,4.35,0ZM42.26,20.46l2.13-5.22,2.13,5.22h-4.25Z"/>
</svg>