<?xml version="1.0" encoding="UTF-8"?>
<svg id="_圖層_1" data-name="圖層_1" xmlns="http://www.w3.org/2000/svg" version="1.1" viewBox="0 0 218.75 50">
  <!-- Generator: Adobe Illustrator 29.8.4, SVG Export Plug-In . SVG Version: 2.1.1 Build 6)  -->
  <defs>
    <style>
      .st0 {
        fill: #1e2b68;
      }

      .st1 {
        fill: #d19527;
      }
    </style>
  </defs>
  <path class="st0" d="M63.69,6.46c5.08-.43,15.09-.16,17.18,5.54,1.89,5.16-2.09,17.28-6.02,21.15-5.47,5.39-19.02,6.42-25.77,3.29-6.91-3.2-3.62-15.05-.69-20.21,3.54-6.26,8.03-9.16,15.29-9.76h0ZM65.51,11.7c-.97.05-2.27.14-3.19.45-4.49,1.52-8.74,12.6-8.31,16.95.45,4.49,7.9,4.49,11,2.88,3.29-1.72,6.86-10.22,7.19-13.81.51-5.52-1.42-6.72-6.69-6.47h0Z"/>
  <path class="st0" d="M105.69,11.64c5.08.51,5.39,4.1,4.29,8.31-1.23,4.73-3.47,6.55-8.44,6.82,1.46,2.74,1.57,8.08,5.87,7.26l-1.06,3.79c-.51.6-5.52.55-6.54.46-.93-.08-1.96-.37-2.33-1.31l-3.33-10-3.15-.1-2.98,9.54c-.23.84.02,1.28.56,1.87h-7.59c-.41,0-1.39-.68-1.08-1.26l7.45-24.46-.6-.91h18.91ZM92.25,22.74h6.37c.47,0,2.01-.49,2.47-.77,1.67-.98,2.65-3.82,1.61-5.53s-6.32-.7-8.14-.98l-.32.13-2,7.15h0Z"/>
  <path class="st0" d="M145.24,37.87c.73.64,1.53,1.26,2.55,1.39,1.96.27,7.48.23,9.49.02,3.3-.36,3.8-3.88,4.55-6.46-.85.91-1.34,2.22-2.44,2.92-2.34,1.49-9.69,1.72-11.83-.09-1.52-1.28-1.33-4.52-1.06-6.3.77-4.93,4.45-10.64,9.53-11.88,3.25-.8,12.62-.99,16.01-.58.95.11,2.04.97,1.63,2.03-2.45,6.2-3.78,13.46-6.29,19.56-1.6,3.9-5.23,4.84-9.1,5.05-2.96.16-7.2.23-10.12,0-4.77-.35-4.01-1.8-2.92-5.66h0ZM165.46,21.13h-4.95c-.74,0-2.68.67-3.33,1.13-2.27,1.58-5.87,9.86-1.32,10.38,1.43.16,5.71,0,6.53-1.35l3.07-10.15h0Z"/>
  <path class="st0" d="M132.79,16.89c1.35.24,1.32,1.33,1.11,2.42,1.37-.99,1.41-2.21,3.33-2.42,1.53-.17,5.55-.18,7.07.02,1.45.19,2.98,1.17,3.14,2.73-1.09,5.61-3.35,11-4.83,16.54-.2.93.26,1.45.8,2.1h-7.18c-.3,0-1.03-.75-.78-1.17l4.31-14.28c-.09-1.19-.54-1.61-1.69-1.71-1.46-.13-4.17-.29-5.01,1.08l-4.77,14.42c-.14.97.15,1.08.77,1.66h-6.98c-.55,0-1.69-.75-1.3-1.49l5.78-18.28-.53-1.62c2.02.25,4.86-.34,6.78,0Z"/>
  <path class="st0" d="M110.35,38.28c-.71-.12-1.23-.75-1.1-1.48l5.21-17.64c.09-.8-.38-1.67-.97-2.17.41-.23.99.09,1.51.11,1.09.05,5.83-.24,6.33.24.12.12.16.33.21.49l-5.36,18.57c-.23.84.02,1.28.56,1.87-1.92-.23-4.54.31-6.37,0h0Z"/>
  <path class="st1" d="M115.81,15.48c-.05-.01-.38-.33-.41-.41-.11-.23.45-2.81.61-3.03.17-.23.36-.18.6-.21.75-.1,5.39-.08,5.73.26.71.71-.22,2.56-.46,3.4l-.2.14c-.08,0-.16-.15-.21-.15-1.19,0-4.83.23-5.67,0h0Z"/>
</svg>