<?xml version="1.0" encoding="UTF-8"?>
<svg id="_圖層_1" data-name="圖層_1" xmlns="http://www.w3.org/2000/svg" version="1.1" viewBox="0 0 218.75 50">
  <!-- Generator: Adobe Illustrator 29.8.4, SVG Export Plug-In . SVG Version: 2.1.1 Build 6)  -->
  <defs>
    <style>
      .st0 {
        fill: #3d1152;
      }
    </style>
  </defs>
  <path class="st0" d="M100.56,41.88v-4.11c0-.21.17-.39.39-.39h22.16c.21,0,.39.17.39.39v4.11c0,.21-.17.39-.39.39h-22.16c-.21,0-.39-.17-.39-.39"/>
  <path class="st0" d="M100.56,27.05v-4.11c0-.21.17-.39.39-.39h22.16c.21,0,.39.17.39.39v4.11c0,.21-.17.39-.39.39h-22.16c-.21,0-.39-.17-.39-.39"/>
  <path class="st0" d="M100.56,12.23v-4.11c0-.21.17-.39.39-.39h22.16c.21,0,.39.17.39.39v4.11c0,.21-.17.39-.39.39h-22.16c-.21,0-.39-.17-.39-.39h0"/>
  <path class="st0" d="M70.59,7.96l9.42,21.54c.09.2.32.29.51.2.09-.04.16-.11.2-.2l9.3-21.54c.06-.14.2-.23.36-.23h4.53c.21,0,.39.17.39.39,0,.05-.01.12-.03.16l-14.54,33.76c-.09.2-.32.29-.51.2-.09-.04-.16-.11-.2-.2l-14.66-33.76c-.09-.2,0-.43.2-.51.05-.02.1-.03.16-.03h4.53c.15,0,.29.09.36.23"/>
  <path class="st0" d="M49.06,29.97l4.09-9.47c.09-.2.32-.29.51-.2.09.04.16.11.2.2l4.14,9.47h-8.94ZM68.52,41.72L53.86,7.96c-.09-.2-.32-.28-.51-.19-.09.04-.16.11-.19.19l-9.48,22.01h-9.78c-.19,0-.34.16-.34.35,0,.05,0,.09.03.14l1.82,4.22c.05.12.16.19.29.19h5.87l-2.96,6.87c-.09.19,0,.43.19.52.05.03.11.03.16.03h4.53c.15,0,.29-.09.36-.23l3.1-7.19h13.19l3.14,7.18c.06.14.2.23.36.23h4.53c.21,0,.39-.18.39-.39,0-.05-.01-.1-.03-.16"/>
  <path class="st0" d="M133.61,7.96l9.42,21.54c.09.2.32.29.51.2.09-.04.16-.11.2-.2l9.3-21.54c.06-.14.2-.23.36-.24h4.55c.21,0,.38.16.39.38,0,.05-.01.11-.03.16l-14.56,33.78c-.09.2-.32.29-.51.2-.09-.04-.16-.11-.2-.2l-14.65-33.76c-.09-.2,0-.43.2-.51.05-.02.1-.03.16-.03h4.53c.15,0,.29.09.36.23"/>
  <path class="st0" d="M165.7,29.97l4.1-9.47c.09-.2.32-.29.51-.2.09.04.16.11.2.2l4.14,9.47h-8.95ZM185.17,41.72l-14.66-33.76c-.09-.2-.32-.29-.51-.2-.09.04-.16.11-.2.2l-14.56,33.77c-.09.19,0,.42.19.51.05.02.1.03.16.03h4.55c.16,0,.29-.1.36-.24l3.1-7.18h13.2l3.14,7.18c.06.14.2.23.36.23h4.53c.21,0,.39-.17.39-.39,0-.05-.01-.11-.03-.16"/>
</svg>