<?xml version="1.0" encoding="UTF-8"?>
<svg id="_圖層_1" data-name="圖層_1" xmlns="http://www.w3.org/2000/svg" version="1.1" viewBox="0 0 218.75 50">
  <!-- Generator: Adobe Illustrator 29.8.4, SVG Export Plug-In . SVG Version: 2.1.1 Build 6)  -->
  <defs>
    <style>
      .st0 {
        fill: #007b89;
      }
    </style>
  </defs>
  <path class="st0" d="M32.2,29.77c0,.71-.27,1.51-.82,2.42-.55.9-1.24,1.68-2.08,2.32-.83.64-1.66.96-2.47.96h-14.75c-1.19,0-2.29-.35-3.31-1.03s-1.81-1.56-2.4-2.62c-.59-1.06-.88-2.07-.88-3.07v-14.19h5.92v12.65c0,.58.16,1.1.5,1.58s.73.86,1.19,1.13c.45.28.86.42,1.2.42h9.06c.38,0,.78-.16,1.2-.49.42-.32.78-.72,1.06-1.17.28-.45.42-.83.42-1.16v-12.97h6.15v15.22h0Z"/>
  <polygon class="st0" points="53.74 35.44 47.82 35.44 47.82 19.55 36.98 19.55 36.98 14.52 53.74 14.52 53.74 35.44"/>
  <polygon class="st0" points="71.95 19.6 61.12 19.6 61.12 35.47 55.2 35.47 55.2 14.55 71.95 14.55 71.95 19.6"/>
  <path class="st0" d="M83.71,35.44h-6.01V14.55h6.01v20.89Z"/>
  <polygon class="st0" points="105.84 35.44 99.92 35.44 99.92 19.55 89.08 19.55 89.08 14.52 105.84 14.52 105.84 35.44"/>
  <polygon class="st0" points="124.06 19.6 113.22 19.6 113.22 35.47 107.3 35.47 107.3 14.55 124.06 14.55 124.06 19.6"/>
  <path class="st0" d="M153.05,35.47h-17.2c-1.19,0-2.3-.35-3.29-1.03-.99-.69-1.78-1.52-2.34-2.51-.57-.99-.86-1.93-.86-2.83v-8.76c0-.9.36-1.81,1.07-2.71.72-.9,1.56-1.64,2.55-2.22.99-.58,1.83-.87,2.53-.87h17.09v4.79h-15.22c-.38,0-.73.09-1.07.29s-.62.44-.83.76c-.22.31-.33.64-.33.99v1.23h17.33v4.72h-17.2v1.68c0,.41.24.77.72,1.08.48.31.95.47,1.4.47h15.66v4.93h0Z"/>
  <path class="st0" d="M182.17,35.47h-16.16c-1.67,0-3.07-.35-4.19-1.03s-1.93-1.52-2.44-2.47c-.5-.96-.76-1.86-.76-2.71v-8.87c0-.95.32-1.88.97-2.78.65-.9,1.43-1.64,2.34-2.2.9-.56,1.66-.85,2.27-.85h17.84v4.9h-13.96c-.52,0-1.05.15-1.56.48-.52.32-.95.72-1.27,1.19-.33.48-.5.92-.5,1.34v4.9c0,.47.13.92.38,1.37.25.45.62.82,1.09,1.12.48.29,1,.45,1.58.45h14.36s0,5.16,0,5.16Z"/>
  <path class="st0" d="M194.08,35.47h-5.92V14.58h5.92v20.89ZM213.26,35.47h-6.04v-7.89h-11.14v-5.07h11.14v-7.98h6.04v20.94Z"/>
</svg>