<?xml version="1.0" encoding="UTF-8"?>
<svg id="_圖層_1" data-name="圖層_1" xmlns="http://www.w3.org/2000/svg" version="1.1" viewBox="0 0 218.75 50">
  <!-- Generator: Adobe Illustrator 29.8.4, SVG Export Plug-In . SVG Version: 2.1.1 Build 6)  -->
  <defs>
    <style>
      .st0 {
        fill: #e62735;
      }
    </style>
  </defs>
  <g>
    <path class="st0" d="M116.87,33.57h6.91v-.43c-.91-.07-1.5-.22-1.78-.47-.28-.24-.41-.79-.41-1.63v-4.82h7.57v4.54c0,1.01-.12,1.63-.36,1.87-.24.24-.85.41-1.83.5v.43h6.91v-.43c-.92-.07-1.51-.23-1.79-.47-.27-.24-.4-.78-.4-1.63v-10.4c0-.84.13-1.38.4-1.63.28-.25.87-.4,1.79-.47v-.44h-6.91v.44c.93.06,1.52.22,1.78.47.27.25.4.8.4,1.63v4.56h-7.57v-4.56c0-.84.14-1.38.41-1.63.27-.25.86-.4,1.78-.47v-.44h-6.91v.44c.92.06,1.51.22,1.79.47.27.25.41.8.41,1.63v10.12c0,1.01-.12,1.63-.37,1.87-.24.24-.85.41-1.83.51v.43ZM135.1,28.28c0,1.62.54,2.96,1.62,4.04,1.08,1.07,2.4,1.61,3.95,1.61s2.94-.56,3.97-1.67c1.02-1.12,1.53-2.44,1.53-3.95,0-1.64-.53-2.96-1.58-3.95-1.06-.99-2.39-1.48-3.99-1.48s-2.94.52-3.96,1.57c-1.02,1.05-1.54,2.33-1.54,3.84M140.25,23.55c1.19,0,2.09.58,2.72,1.74.63,1.16.94,2.41.94,3.72s-.25,2.3-.74,3.08c-.49.78-1.19,1.18-2.1,1.18-1.16,0-2.07-.59-2.72-1.76-.65-1.17-.98-2.43-.98-3.79,0-1.7.4-2.89,1.22-3.58.47-.4,1.03-.59,1.67-.59M147.43,33.57h5.89v-.32c-.76-.05-1.26-.18-1.51-.37-.25-.2-.37-.62-.37-1.28v-13.68c0-.15,0-.25-.02-.3-.01-.05-.05-.07-.1-.07-1.54.46-2.86.82-3.95,1.1v.38c.2-.05.37-.08.5-.11.13-.02.26-.03.37-.03.49,0,.82.16.99.48.09.19.13.53.13,1.04v11.15c0,.63-.13,1.06-.4,1.27-.27.22-.78.36-1.53.43v.32ZM159.74,22.79c-1.49,0-2.74.59-3.76,1.77-1.02,1.19-1.54,2.6-1.54,4.25,0,1.32.43,2.47,1.29,3.47.85,1,1.97,1.5,3.35,1.5.78,0,1.46-.17,2.06-.51.33-.2.72-.53,1.18-1v1.41l.09.1,1.91-.67c1.13-.37,1.72-.56,1.76-.57v-.38c-.09.02-.18.03-.27.03-.09,0-.18,0-.27,0-.56,0-.9-.1-1.04-.3-.13-.2-.19-.55-.19-1.04l.02-9.32c0-.45,0-.9.01-1.36,0-.46.02-.91.02-1.34l.03-1.2-.08-.02c-.3.11-.51.18-.64.21-.28.09-.6.19-.96.29-.37.1-.73.2-1.1.29l-1,.24v.38c.25-.03.41-.04.49-.05.07,0,.16-.01.25-.01.42,0,.67.08.78.26.11.18.16.5.16.96v3.63c-.3-.28-.61-.5-.93-.66-.49-.24-1.04-.37-1.63-.37M160.19,32.55c-1.2,0-2.1-.48-2.71-1.44-.61-.95-.91-2.05-.91-3.28s.29-2.28.85-3.13c.56-.85,1.36-1.28,2.38-1.28.53,0,1.08.21,1.65.61.56.41.84,1.1.84,2.1v4.9c0,.31-.19.64-.58.99-.39.35-.9.53-1.53.53M168.35,18.83c0,.33.12.6.37.83.24.23.54.35.9.35s.65-.12.89-.35c.25-.23.37-.51.37-.83s-.12-.62-.37-.85c-.25-.23-.54-.35-.89-.35s-.66.12-.9.35c-.25.23-.37.52-.37.84M166.79,33.57h5.91v-.32c-.79-.07-1.29-.2-1.51-.43-.23-.22-.34-.76-.34-1.63v-8.2c0-.06,0-.12-.02-.17-.06,0-.21.05-.44.14-.56.22-1.55.55-2.96.98l-.53.16v.35c.41-.11.65-.17.74-.18.09-.02.17-.02.26-.02.39,0,.65.16.77.47.07.19.11.53.11,1.03v5.44c0,.89-.11,1.43-.34,1.63-.23.2-.78.34-1.64.42v.32ZM173.67,33.57h5.31v-.32c-.56-.02-.97-.12-1.22-.31-.26-.19-.39-.55-.39-1.1v-6.39c.44-.41.8-.7,1.06-.87.5-.31.98-.46,1.45-.46.69,0,1.17.22,1.43.64.25.43.38.97.38,1.63v4.87c0,.78-.12,1.28-.35,1.51-.23.23-.65.39-1.24.46v.32h5.19v-.32c-.55-.01-.94-.13-1.17-.38-.23-.24-.35-.64-.35-1.19v-5.33c0-1.48-.44-2.51-1.31-3.09-.45-.29-.96-.45-1.51-.45-.68,0-1.34.19-1.96.56-.42.24-1.01.69-1.75,1.35v-1.68c0-.07,0-.12-.01-.16-.02-.04-.05-.05-.11-.05l-1.14.35c-1.24.38-2.03.62-2.36.71v.4c.12-.01.21-.03.29-.03.08,0,.15,0,.23,0,.48,0,.8.14.95.43.1.2.14.54.14,1.02v5.8c0,.7-.12,1.15-.35,1.35-.23.2-.63.33-1.21.4v.32ZM188.12,35.68c0-.41.19-.86.58-1.34.38-.48.61-.72.71-.72.2.04.49.09.89.14.4.05.69.08.86.09.27.01.58.03.91.04.33.01.65.02.95.03,1.18.02,1.98.07,2.4.17.68.17,1.02.51,1.02,1.02,0,.64-.42,1.18-1.27,1.61-.84.44-1.94.66-3.28.66-.99,0-1.87-.12-2.63-.37-.77-.25-1.15-.69-1.15-1.32M189.7,29.73c-.92.76-1.52,1.31-1.79,1.65-.28.33-.42.65-.42.93,0,.3.16.57.48.81.19.13.46.26.84.4l-.15.14-.8.67c-.61.51-1.01.91-1.22,1.17-.21.26-.31.53-.31.8,0,.55.39,1.09,1.17,1.59.78.51,1.83.76,3.16.76,1.46,0,2.91-.36,4.34-1.07,1.43-.71,2.15-1.67,2.15-2.87s-.61-1.95-1.84-2.3c-.74-.22-2.16-.33-4.25-.33-.46,0-.87-.04-1.24-.11-.57-.12-.85-.29-.85-.54s.2-.54.59-.91c.39-.38.7-.56.94-.56.53.07.89.1,1.1.1,1.3,0,2.33-.36,3.1-1.09.77-.73,1.15-1.53,1.15-2.39,0-.4-.07-.82-.2-1.25-.08-.24-.2-.52-.34-.84h2.1v-.92h-.15c-.15,0-.4,0-.75.01-.34.01-.6.02-.77.02-.65,0-1.34-.13-2.05-.39-.71-.26-1.37-.4-1.96-.4-1.38,0-2.45.4-3.2,1.2-.75.79-1.13,1.64-1.13,2.53,0,.73.21,1.39.62,1.98.41.59.98.99,1.72,1.22M192.01,29.51c-.76,0-1.38-.37-1.86-1.11-.48-.74-.72-1.57-.72-2.5,0-.55.08-1.01.23-1.38.3-.71.85-1.06,1.64-1.06.92,0,1.57.45,1.97,1.36.39.91.59,1.72.59,2.44,0,.91-.24,1.54-.73,1.91-.3.23-.67.34-1.12.34M199.44,33.66h.32c.04-.09.1-.17.17-.23.07-.07.16-.1.25-.1.11,0,.48.08,1.09.23.62.15,1.17.23,1.65.23,1.16,0,2.09-.29,2.81-.85.72-.57,1.07-1.31,1.07-2.2,0-1.17-.86-2.2-2.59-3.09l-1.61-.81c-1.12-.55-1.68-1.17-1.68-1.87,0-.44.16-.83.49-1.15.32-.33.77-.49,1.34-.49.95,0,1.67.38,2.18,1.14.27.41.5.98.66,1.72h.37l-.08-3.19h-.29c-.05.09-.11.14-.17.18-.07.04-.17.06-.32.06-.06,0-.36-.08-.87-.23-.52-.15-.99-.23-1.42-.23-.99,0-1.8.27-2.45.82-.65.55-.97,1.25-.97,2.1,0,.69.24,1.29.7,1.8.47.51,1.2,1.02,2.2,1.52l1.37.73c.51.28.87.57,1.07.87.2.3.3.6.3.92,0,.5-.18.91-.53,1.23-.35.32-.83.48-1.44.48-1.09,0-1.92-.43-2.49-1.28-.31-.46-.57-1.13-.75-2h-.4v3.69Z"/>
    <path d="M59.38,33.57h5.96v-.38c-.55-.03-.96-.1-1.24-.23-.28-.13-.42-.39-.42-.77,0-.12.02-.3.07-.54.04-.23.12-.53.22-.9l2.97-10.34c.21-.71.43-1.15.67-1.33.24-.18.68-.31,1.32-.4v-.37h-6.02v.37c.64.04,1.09.13,1.34.27.25.14.38.4.38.77,0,.17-.02.34-.06.51-.04.17-.12.47-.23.88l-2.98,10.34c-.21.72-.48,1.2-.81,1.42-.22.16-.61.25-1.18.3v.38ZM68.11,34h.43c.1-.26.22-.45.34-.58.13-.13.34-.2.62-.2.19,0,.68.14,1.46.43.79.29,1.56.43,2.33.43,1.47,0,2.64-.47,3.53-1.41.88-.94,1.32-2.02,1.32-3.23,0-.69-.14-1.3-.4-1.82-.27-.52-.6-.99-1-1.4l-2.19-2.27c-.63-.65-1.05-1.15-1.27-1.51-.22-.36-.33-.79-.33-1.32,0-.64.24-1.18.73-1.61.49-.43,1.12-.65,1.91-.65,1.27,0,2.13.45,2.59,1.35.25.51.4,1.32.44,2.42l.43.06.98-4.66h-.56c-.1.15-.24.3-.41.44-.17.14-.38.21-.64.21-.14,0-.54-.1-1.22-.31-.68-.21-1.34-.31-1.98-.31-1.44,0-2.53.4-3.27,1.22-.74.81-1.11,1.69-1.11,2.65,0,.62.17,1.2.5,1.73.33.54,1.08,1.42,2.25,2.65l1.52,1.59c.36.39.62.83.78,1.32.1.32.15.62.15.92,0,.77-.27,1.48-.82,2.12-.55.65-1.32.97-2.31.97s-1.83-.36-2.51-1.07c-.69-.72-1.03-1.67-1.03-2.87,0-.04,0-.2.01-.46l-.46-.06-.82,5.22ZM85.6,32.83c-.67,0-1.1-.06-1.32-.18-.21-.12-.32-.35-.32-.69,0-.11,0-.21.02-.32.02-.11.06-.27.12-.5l3.32-11.44c.07-.25.22-.43.45-.52.23-.1.6-.15,1.13-.15,1.94,0,3.28.5,4.02,1.49.74,1,1.12,2.22,1.12,3.67s-.37,2.99-1.1,4.44c-1.43,2.8-3.91,4.2-7.43,4.2M79.61,33.57h6.43c3.29,0,5.96-.94,8.01-2.83,1.88-1.72,2.81-3.75,2.81-6.1,0-1.18-.26-2.24-.78-3.18-.36-.62-.8-1.16-1.33-1.62-.75-.62-1.56-1.02-2.44-1.22-.88-.2-1.9-.29-3.06-.29h-6.27v.37c.72.02,1.21.1,1.48.25.27.15.4.42.4.79,0,.17-.02.36-.08.59-.05.23-.12.5-.21.8l-2.98,10.34c-.21.72-.48,1.2-.82,1.42-.21.16-.6.25-1.17.3v.38ZM96.86,33.57h4.84v-.38c-.5-.01-.86-.07-1.1-.17-.41-.16-.62-.46-.62-.89,0-.14.03-.34.08-.58.05-.24.1-.45.15-.63l2.7-9.71h.12l5.51,12.75h.46c.15-.59.25-.95.29-1.1.04-.15.11-.39.2-.71l2.9-9.99c.44-1.47.78-2.37,1.04-2.72.25-.34.75-.59,1.49-.74v-.37h-4.84v.37c.54.03.92.1,1.15.2.38.16.57.45.57.88,0,.1-.02.27-.06.48-.04.22-.09.45-.17.72l-2.41,8.92h-.09s-4.98-11.57-4.98-11.57h-3.9v.37c.36.05.65.09.85.14.2.05.37.12.53.22.15.1.3.26.44.49.14.22.21.36.19.4l-2.82,9.79c-.42,1.45-.77,2.36-1.05,2.74-.29.37-.78.61-1.47.72v.38Z"/>
    <path d="M150.28,46.44h4.76l.43-1.63h-.23c-.26.57-.53.91-.8,1.06-.28.14-.81.21-1.6.21-.2,0-.34,0-.41,0-.07,0-.15,0-.21-.01-.11-.02-.18-.06-.22-.11-.04-.06-.05-.14-.05-.24v-4.51c0-.31.05-.52.16-.61.11-.09.33-.15.65-.17v-.17h-2.5v.17c.33.03.54.09.64.19.09.1.14.32.14.65v4.18c0,.35-.05.57-.14.66-.09.09-.31.15-.63.18v.17ZM155.73,46.44h2.62v-.17c-.36-.03-.59-.08-.7-.17-.11-.09-.16-.31-.16-.67v-4.18c0-.34.05-.57.16-.66.11-.1.34-.16.7-.18v-.17h-2.62v.17c.36.02.59.08.7.18.11.1.16.32.16.66v4.18c0,.36-.05.58-.16.67-.11.09-.34.14-.7.17v.17ZM158.63,46.44h2.08v-.17c-.32-.04-.52-.1-.62-.21-.14-.15-.21-.49-.21-1v-3.74l2.23,5.12h.12l2.26-5.35v4.21c0,.4-.05.65-.13.75-.09.11-.31.18-.67.21v.17h2.48v-.17c-.33-.03-.54-.09-.63-.19-.1-.09-.14-.31-.14-.65v-4.18c0-.33.05-.55.14-.65.1-.1.31-.16.63-.19v-.17h-1.76l-1.98,4.68-2.03-4.68h-1.75v.17c.36.02.59.08.69.19.11.1.15.32.15.66v3.82c0,.49-.05.81-.16.94-.1.13-.34.22-.7.26v.17ZM166.53,46.44h2.62v-.17c-.36-.03-.6-.08-.7-.17-.11-.09-.16-.31-.16-.67v-4.18c0-.34.05-.57.16-.66.1-.1.34-.16.7-.18v-.17h-2.62v.17c.36.02.6.08.7.18.1.1.16.32.16.66v4.18c0,.36-.06.58-.16.67-.11.09-.34.14-.7.17v.17ZM169.46,41.83h.21c.09-.51.22-.83.4-.98.18-.15.51-.23,1-.23h.5v4.69c0,.4-.05.66-.14.76-.09.1-.33.17-.7.2v.17h2.58v-.17c-.36-.03-.59-.08-.7-.17-.1-.09-.16-.31-.16-.67v-4.81h.49c.51,0,.85.08,1.01.23.16.15.29.48.39.98h.21l-.05-1.6h-5l-.05,1.6ZM174.84,46.44h4.78l.4-1.59h-.25c-.23.54-.48.87-.77,1.01-.28.14-.73.21-1.33.21-.55,0-.89-.02-1-.05-.11-.04-.17-.15-.17-.33v-2.33h1.36c.37,0,.62.06.72.18.1.12.19.36.26.72h.21v-2.17h-.21c-.06.36-.15.6-.25.72-.1.12-.35.18-.72.18h-1.36v-2.1c0-.12.02-.2.04-.25.03-.05.11-.07.24-.07h1.21c.52,0,.85.06,1,.18.15.12.26.39.34.8h.22l-.03-1.34h-4.7v.17c.33.03.54.09.63.19.1.1.14.32.14.65v4.18c0,.35-.05.57-.14.66-.09.09-.31.15-.63.18v.17ZM181.96,45.71v-4.77c0-.15.04-.26.1-.3.07-.05.2-.07.4-.07.8,0,1.44.21,1.92.63.56.49.85,1.21.85,2.17,0,1.08-.34,1.84-1.03,2.29-.44.29-1.01.44-1.7.44-.22,0-.37-.03-.44-.08-.07-.05-.1-.15-.1-.3M180.28,46.44h2.46c.66,0,1.21-.09,1.66-.26.25-.1.49-.23.72-.42.36-.3.63-.65.81-1.07.18-.42.27-.86.27-1.33,0-1.3-.5-2.2-1.5-2.71-.55-.28-1.23-.42-2.04-.42h-2.39v.17c.33.03.54.09.64.19.09.1.14.32.14.66v4.18c0,.35-.05.57-.14.66-.1.09-.31.15-.63.18v.17Z"/>
  </g>
  <path class="st0" d="M49.87,18.43c-.58-9.59-7.92-15.2-18.31-14.86-10.39.35-18.75,6.82-19.57,19.83-.81,13.01,9.23,19.48,19.8,19.37,10.51-.12,14.15-3.9,14.15-3.9l-1.55,5.05h6.85l3.64-12.49-13.04,2.23.12,1.44,3.75-.35s-4.42,4.51-11.44,4.69c-7.02.17-18.87-1.53-19.04-15.41-.18-14.57,13.47-17.72,18.31-17.37,4.84.35,12.44,3.42,12.76,11.97.29,7.8-5.42,12.51-7.22,13.41-1.46.73-2.57.92-1.72-1.53.85-2.46,2.88-8.99,2.88-8.99,0,0,.91-5.3-3.46-4.19-3.41.87-6.76,4.69-6.76,4.69l-2.33,2.77,3.64-11.07-8.77,1.15.35,1.02,2.48-.12s.99.06.81.81c-.17.75-5.71,18.41-5.71,18.41l4.14-.12s.72-2.71,2.03-5c1.32-2.29,4.05-6.4,6.35-8.47,2.3-2.08,4.74-2.37,3.64,1.02-1.1,3.38-3.17,10.03-3.17,10.03,0,0-1.2,3.32.41,3.96,1.6.64,4.1-1.07,6.29-2.4,2.19-1.33,10.28-5.99,9.7-15.58"/>
</svg>