<?xml version="1.0" encoding="UTF-8"?>
<svg id="_圖層_1" data-name="圖層_1" xmlns="http://www.w3.org/2000/svg" version="1.1" viewBox="0 0 218.75 50">
  <!-- Generator: Adobe Illustrator 29.8.4, SVG Export Plug-In . SVG Version: 2.1.1 Build 6)  -->
  <defs>
    <style>
      .st0 {
        fill: #d6132e;
      }
    </style>
  </defs>
  <path class="st0" d="M48.43,12.46h-5.24c-1.53,0-1.74-.62-1.74-1.3,0-1.08.38-1.72,2.29-1.72h10.52v-4.86h-11.1c-5.01,0-7.35,2.07-7.35,6.52,0,4.14,2.29,6.15,7.01,6.15h4.66c1.85,0,2.05.46,2.05,1.43,0,.83-.16,1.37-2.32,1.37h-10.65v4.85h11.28c4.93,0,7.33-2.09,7.33-6.38s-2.02-6.07-6.75-6.07"/>
  <path class="st0" d="M67.26,4.23c-6.72,0-10.13,3.48-10.13,10.34,0,7.32,3.22,10.73,10.13,10.73s10.13-3.45,10.13-10.55-3.31-10.52-10.13-10.52M71.59,14.75c0,5.11-2.19,5.8-4.34,5.8s-4.31-.72-4.31-5.96,2.46-5.65,4.31-5.65c2.14,0,4.34.69,4.34,5.8"/>
  <path class="st0" d="M88.38,20.29c-1.67,0-2.47-.25-3.07-.97-.45-.52-.47-1.45-.47-2.92V4.6h-5.45v11.94c0,2.63.32,4.49,1.91,6.17,1.92,2.04,4.01,2.2,6.75,2.2h5.76v-4.62h-5.41Z"/>
  <path class="st0" d="M105.81,4.23c-6.72,0-10.13,3.48-10.13,10.34,0,7.32,3.22,10.73,10.13,10.73s10.13-3.45,10.13-10.55-3.31-10.52-10.13-10.52M110.15,14.75c0,5.11-2.19,5.8-4.34,5.8s-4.31-.72-4.31-5.96,2.46-5.65,4.31-5.65c2.14,0,4.34.69,4.34,5.8"/>
  <polygon class="st0" points="133.51 4.6 129.25 17.4 125 4.6 117.89 4.6 117.89 24.91 123.44 24.91 123.16 14.32 126.72 24.91 132 24.91 135.41 14.51 135.19 24.91 140.58 24.91 140.58 4.6 133.51 4.6"/>
  <path class="st0" d="M152.73,4.23c-6.72,0-10.13,3.48-10.13,10.34,0,7.32,3.22,10.73,10.13,10.73s10.13-3.45,10.13-10.55-3.31-10.52-10.13-10.52M157.07,14.75c0,5.11-2.19,5.8-4.34,5.8s-4.31-.72-4.31-5.96,2.46-5.65,4.31-5.65c2.14,0,4.34.69,4.34,5.8"/>
  <polygon class="st0" points="177.4 4.6 177.55 15.96 171.06 4.6 164.88 4.6 164.88 24.91 170.45 24.91 170.3 12.83 177.17 24.91 182.94 24.91 182.94 4.6 177.4 4.6"/>
  <path class="st0" d="M39.01,44.72l-3.2-9.88h1.96l1.35,4.49c.38,1.25.7,2.41.97,3.61h.03c.26-1.17.62-2.37,1.01-3.58l1.43-4.51h1.92l-3.42,9.88h-2.06,0Z"/>
  <path class="st0" d="M47.09,35.58c0,.54-.4.97-1.03.97s-.99-.43-.99-.97.41-.98,1.01-.98.99.43,1.02.98M45.17,37.58h1.82v7.14h-1.82v-7.14Z"/>
  <path class="st0" d="M48.83,43.06c.41.25,1.19.51,1.83.51.79,0,1.15-.32,1.15-.8s-.29-.73-1.17-1.04c-1.39-.49-1.98-1.25-1.96-2.08,0-1.26,1.04-2.24,2.7-2.24.79,0,1.48.21,1.89.43l-.35,1.28c-.31-.18-.88-.41-1.51-.41s-.99.31-.99.75.34.67,1.25.99c1.29.47,1.89,1.13,1.91,2.18,0,1.29-1.01,2.24-2.9,2.24-.86,0-1.64-.22-2.17-.51l.35-1.3h-.01Z"/>
  <path class="st0" d="M56.95,35.58c0,.54-.4.97-1.03.97s-.99-.43-.99-.97.41-.98,1.02-.98.99.43,1.01.98M55.03,37.58h1.82v7.14h-1.82v-7.14Z"/>
  <path class="st0" d="M65.58,41.09c0,2.63-1.85,3.8-3.66,3.8-2.02,0-3.58-1.39-3.58-3.68s1.54-3.78,3.7-3.78,3.55,1.5,3.55,3.66M60.2,41.15c0,1.38.67,2.42,1.78,2.42,1.03,0,1.74-1.02,1.74-2.45,0-1.12-.5-2.39-1.73-2.39s-1.79,1.23-1.79,2.42"/>
  <path class="st0" d="M67.06,39.71c0-.82-.01-1.51-.05-2.13h1.58l.09,1.07h.04c.31-.56,1.08-1.23,2.27-1.23s2.54.81,2.54,3.07v4.24h-1.8v-4.03c0-1.03-.38-1.8-1.37-1.8-.72,0-1.21.51-1.41,1.06-.05.16-.08.38-.08.58v4.19h-1.82v-5.01h0Z"/>
  <path class="st0" d="M79.56,37.58l.75,3.24c.16.76.32,1.54.45,2.32h.03c.14-.78.38-1.57.58-2.3l.93-3.26h1.47l.9,3.17c.22.84.41,1.61.57,2.39h.03c.12-.78.28-1.56.47-2.39l.79-3.17h1.78l-2.24,7.14h-1.67l-.85-2.9c-.22-.75-.38-1.42-.54-2.28h-.03c-.14.88-.34,1.58-.54,2.28l-.91,2.9h-1.69l-2.11-7.14h1.86Z"/>
  <path class="st0" d="M91.38,35.58c0,.54-.4.97-1.03.97s-.99-.43-.99-.97.41-.98,1.01-.98.99.43,1.01.98M89.46,37.58h1.82v7.14h-1.82v-7.14Z"/>
  <path class="st0" d="M95.28,35.75v1.83h1.72v1.35h-1.72v3.16c0,.86.23,1.32.93,1.32.34,0,.5-.03.71-.09l.03,1.38c-.27.1-.73.19-1.3.19-.66,0-1.21-.23-1.55-.6-.38-.41-.56-1.06-.56-2v-3.35h-1.03v-1.35h1.03v-1.32l1.76-.51h0Z"/>
  <path class="st0" d="M98.36,34.31h1.82v4.25h.03c.22-.34.53-.63.89-.82.35-.21.78-.32,1.23-.32,1.21,0,2.49.81,2.49,3.09v4.21h-1.8v-4c0-1.04-.38-1.82-1.38-1.82-.71,0-1.2.47-1.39,1.01-.06.15-.08.34-.08.54v4.27h-1.82v-10.41h.01Z"/>
  <rect class="st0" x="109.86" y="34.84" width="1.8" height="9.88"/>
  <path class="st0" d="M113.74,39.71c0-.82-.01-1.51-.06-2.13h1.58l.09,1.07h.04c.31-.56,1.08-1.23,2.27-1.23,1.25,0,2.54.81,2.54,3.07v4.24h-1.8v-4.03c0-1.03-.38-1.8-1.37-1.8-.72,0-1.21.51-1.41,1.06-.05.16-.08.38-.08.58v4.19h-1.82v-5.01h0Z"/>
  <path class="st0" d="M124.12,35.75v1.83h1.72v1.35h-1.72v3.16c0,.86.23,1.32.93,1.32.34,0,.5-.03.71-.09l.03,1.38c-.26.1-.73.19-1.3.19-.66,0-1.22-.23-1.56-.6-.38-.41-.56-1.06-.56-2v-3.35h-1.03v-1.35h1.03v-1.32l1.76-.51h0Z"/>
  <path class="st0" d="M128.39,41.65c.04,1.29,1.06,1.85,2.2,1.85.84,0,1.43-.12,1.98-.32l.26,1.25c-.62.25-1.47.45-2.49.45-2.32,0-3.68-1.44-3.68-3.62,0-1.98,1.2-3.84,3.49-3.84s3.08,1.91,3.08,3.48c0,.34-.03.6-.06.76h-4.79ZM131.53,40.39c.01-.66-.28-1.74-1.48-1.74-1.11,0-1.58,1.02-1.66,1.74h3.14,0Z"/>
  <rect class="st0" x="134.68" y="34.31" width="1.82" height="10.41"/>
  <rect class="st0" x="138.45" y="34.31" width="1.82" height="10.41"/>
  <path class="st0" d="M144.14,35.58c0,.54-.4.97-1.03.97s-1-.43-1-.97.41-.98,1.01-.98.99.43,1.02.98M142.22,37.58h1.82v7.14h-1.82v-7.14Z"/>
  <path class="st0" d="M152.44,43.68c0,1.5-.31,2.57-1.06,3.24-.75.66-1.78.86-2.76.86-.91,0-1.88-.19-2.49-.57l.4-1.37c.45.27,1.22.54,2.09.54,1.17,0,2.05-.62,2.05-2.15v-.62h-.03c-.41.63-1.15,1.06-2.09,1.06-1.78,0-3.03-1.47-3.03-3.49,0-2.35,1.52-3.77,3.24-3.77,1.08,0,1.73.53,2.06,1.11h.03l.08-.95h1.57c-.03.49-.05,1.07-.05,2.05v4.05h0ZM150.63,40.44c0-.16-.01-.34-.06-.48-.19-.66-.71-1.16-1.47-1.16-1.01,0-1.76.88-1.76,2.33,0,1.21.62,2.2,1.74,2.2.67,0,1.26-.44,1.47-1.08.04-.19.08-.44.08-.64v-1.16h0Z"/>
  <path class="st0" d="M155.65,41.65c.04,1.29,1.06,1.85,2.2,1.85.84,0,1.44-.12,1.98-.32l.27,1.25c-.62.25-1.47.45-2.49.45-2.32,0-3.68-1.44-3.68-3.62,0-1.98,1.2-3.84,3.49-3.84s3.08,1.91,3.08,3.48c0,.34-.03.6-.05.76h-4.8ZM158.78,40.39c.01-.66-.28-1.74-1.48-1.74-1.11,0-1.58,1.02-1.65,1.74h3.14,0Z"/>
  <path class="st0" d="M161.94,39.71c0-.82-.01-1.51-.06-2.13h1.58l.09,1.07h.04c.31-.56,1.08-1.23,2.27-1.23,1.25,0,2.54.81,2.54,3.07v4.24h-1.8v-4.03c0-1.03-.38-1.8-1.37-1.8-.72,0-1.21.51-1.41,1.06-.05.16-.08.38-.08.58v4.19h-1.82v-5.01h0Z"/>
  <path class="st0" d="M175.57,44.5c-.38.18-1.13.38-2.02.38-2.23,0-3.68-1.43-3.68-3.65s1.47-3.81,3.97-3.81c.66,0,1.34.14,1.74.34l-.32,1.35c-.29-.13-.72-.28-1.37-.28-1.38,0-2.2,1.01-2.18,2.32,0,1.47.95,2.3,2.18,2.3.63,0,1.07-.13,1.42-.28l.25,1.34h0Z"/>
  <path class="st0" d="M178.05,41.65c.04,1.29,1.06,1.85,2.2,1.85.84,0,1.43-.12,1.98-.32l.26,1.25c-.62.25-1.47.45-2.49.45-2.32,0-3.68-1.44-3.68-3.62,0-1.98,1.2-3.84,3.49-3.84s3.08,1.91,3.08,3.48c0,.34-.03.6-.06.76h-4.79ZM181.19,40.39c.01-.66-.28-1.74-1.48-1.74-1.11,0-1.58,1.02-1.65,1.74h3.14,0Z"/>
</svg>