<?xml version="1.0" encoding="UTF-8"?>
<svg id="_圖層_1" data-name="圖層_1" xmlns="http://www.w3.org/2000/svg" version="1.1" viewBox="0 0 218.75 50">
  <!-- Generator: Adobe Illustrator 29.8.4, SVG Export Plug-In . SVG Version: 2.1.1 Build 6)  -->
  <defs>
    <style>
      .st0 {
        fill: #d02518;
      }

      .st1 {
        fill: #040000;
      }
    </style>
  </defs>
  <path class="st0" d="M46.92,13.72h9.1v5.83h-9.1v-5.83ZM35.27,27.92h9.1v-5.83h-9.1v5.83ZM58.56,27.92h9.1v-5.83h-9.1v5.83ZM46.92,36.28h9.1v-5.83h-9.1v5.83ZM58.56,13.72v5.83h9.1v-.91c0-2.72-2.2-4.92-4.92-4.92h-4.18,0ZM62.74,36.28c2.72,0,4.92-2.2,4.92-4.92v-.91h-9.1v5.83h4.18,0ZM35.27,19.55h9.1v-5.83h-4.18c-2.72,0-4.92,2.2-4.92,4.92v.91h0ZM44.37,36.28v-5.83h-9.1v.91c0,2.72,2.2,4.92,4.92,4.92h4.18,0Z"/>
  <path class="st1" d="M96.84,19.79c0-3.35-2.72-6.08-6.08-6.08h-18.79v22.57h5.51v-8.03h12.3c.69,0,1.25.56,1.25,1.25v6.78h5.51v-6.78c0-1.23-.63-2.3-1.58-2.93,1.16-1.1,1.88-2.66,1.88-4.39v-2.39h0ZM91.33,22.17c0,.69-.56,1.25-1.25,1.25h-12.59v-4.85h12.59c.69,0,1.25.56,1.25,1.25v2.35ZM159,19.79v16.49h-5.51v-16.48c0-.69-.56-1.25-1.25-1.25h-12.64v17.72h-5.51V13.71h18.83c3.35,0,6.08,2.72,6.08,6.08M124.31,25v-11.28h5.51v22.57h-5.51v-11.28h0ZM121.52,18.57h-10.34v17.72h-5.51v-17.72h-6.37v-4.85h22.23v4.85h0ZM210.53,18.57h-10.34v17.72h-5.51v-17.72h-6.37v-4.85h22.23v4.85h0ZM185.81,31.43v4.85h-22.53V13.72h22.23v4.85h-16.72v3.98h14.31v4.85h-14.31v4.05h17.02,0ZM13.72,18.57v4.85h15.96v4.85h-15.96v8.03h-5.51V13.72h24.18v4.85H13.72Z"/>
</svg>